M48
; Gegenereerd door hardware/gpio-adapter/maak_pcb.py
; FORMAT={-:-/ absolute / metric / decimal}
FMAT,2
METRIC,TZ
; #@! TF.FileFunction,NonPlated,1,1,NPTH
T1C1.000
T2C3.200
%
G90
G05
T1
X11.505Y48.040
X11.505Y50.580
X14.045Y48.040
X14.045Y50.580
X16.585Y48.040
X16.585Y50.580
X19.125Y48.040
X19.125Y50.580
X21.665Y48.040
X21.665Y50.580
X24.205Y48.040
X24.205Y50.580
X26.745Y48.040
X26.745Y50.580
X29.285Y48.040
X29.285Y50.580
X31.825Y48.040
X31.825Y50.580
X34.365Y48.040
X34.365Y50.580
X36.905Y48.040
X36.905Y50.580
X39.445Y48.040
X39.445Y50.580
X41.985Y48.040
X41.985Y50.580
X44.525Y48.040
X44.525Y50.580
X47.065Y48.040
X47.065Y50.580
X49.605Y48.040
X49.605Y50.580
X52.145Y48.040
X52.145Y50.580
X54.685Y48.040
X54.685Y50.580
X57.225Y48.040
X57.225Y50.580
X59.765Y48.040
X59.765Y50.580
X10.235Y10.180
X10.235Y12.720
X12.775Y10.180
X12.775Y12.720
X15.315Y10.180
X15.315Y12.720
X17.855Y10.180
X17.855Y12.720
X20.395Y10.180
X20.395Y12.720
X22.935Y10.180
X22.935Y12.720
X25.475Y10.180
X25.475Y12.720
X28.015Y10.180
X28.015Y12.720
X30.555Y10.180
X30.555Y12.720
X33.095Y10.180
X33.095Y12.720
X35.635Y10.180
X35.635Y12.720
X38.175Y10.180
X38.175Y12.720
X40.715Y10.180
X40.715Y12.720
X43.255Y10.180
X43.255Y12.720
X45.795Y10.180
X45.795Y12.720
X48.335Y10.180
X48.335Y12.720
X50.875Y10.180
X50.875Y12.720
X53.415Y10.180
X53.415Y12.720
X55.955Y10.180
X55.955Y12.720
X58.495Y10.180
X58.495Y12.720
X14.045Y24.870
X14.045Y17.250
X16.585Y34.190
X16.585Y26.570
X19.125Y43.510
X19.125Y35.890
X17.855Y24.870
X17.855Y17.250
X20.395Y34.190
X20.395Y26.570
X24.205Y34.190
X24.205Y26.570
X22.935Y43.510
X22.935Y35.890
X26.745Y43.510
X26.745Y35.890
X29.285Y24.870
X29.285Y17.250
X28.015Y34.190
X28.015Y26.570
X30.555Y43.510
X30.555Y35.890
X34.365Y43.510
X34.365Y35.890
X36.905Y24.870
X36.905Y17.250
X35.635Y34.190
X35.635Y26.570
X39.445Y34.190
X39.445Y26.570
X38.175Y43.510
X38.175Y35.890
X40.715Y24.870
X40.715Y17.250
X47.065Y34.190
X47.065Y26.570
X49.605Y43.510
X49.605Y35.890
X48.335Y24.870
X48.335Y17.250
X52.145Y24.870
X52.145Y17.250
X54.685Y34.190
X54.685Y26.570
X53.415Y43.510
X53.415Y35.890
X57.225Y43.510
X57.225Y35.890
X55.955Y24.870
X55.955Y17.250
X58.495Y34.190
X58.495Y26.570
T2
X4.000Y56.760
X66.000Y56.760
X4.000Y4.000
X66.000Y4.000
T0
M30
