G04 Gegenereerd door hardware/gpio-adapter/maak_pcb.py*
%TF.GenerationSoftware,rpitest,maak_pcb,1*%
%TF.FileFunction,Copper,L1,Bot*%
%TF.FilePolarity,Positive*%
%FSLAX46Y46*%
%MOMM*%
%ADD10C,0.300000*%
%ADD11R,1.700000X1.700000*%
%ADD12C,1.700000*%
G01*
D10*
X14045000Y48040000D02*
X14045000Y24870000D01*
X14045000Y17250000D02*
X14045000Y11450000D01*
X14045000Y11450000D02*
X12775000Y10180000D01*
X16585000Y48040000D02*
X16585000Y34190000D01*
X16585000Y26570000D02*
X16585000Y11450000D01*
X16585000Y11450000D02*
X15315000Y10180000D01*
X16585000Y50580000D02*
X15315000Y49310000D01*
X15315000Y49310000D02*
X15315000Y30380000D01*
X15315000Y30380000D02*
X15315000Y12720000D01*
X19125000Y48040000D02*
X19125000Y43510000D01*
X19125000Y35890000D02*
X19125000Y11450000D01*
X19125000Y11450000D02*
X17855000Y10180000D01*
X19125000Y50580000D02*
X17855000Y49310000D01*
X17855000Y49310000D02*
X17855000Y24870000D01*
X17855000Y17250000D02*
X17855000Y12720000D01*
X21665000Y48040000D02*
X21665000Y30380000D01*
X21665000Y30380000D02*
X21665000Y11450000D01*
X21665000Y11450000D02*
X20395000Y10180000D01*
X21665000Y50580000D02*
X20395000Y49310000D01*
X20395000Y49310000D02*
X20395000Y34190000D01*
X20395000Y26570000D02*
X20395000Y12720000D01*
X24205000Y48040000D02*
X24205000Y34190000D01*
X24205000Y26570000D02*
X24205000Y11450000D01*
X24205000Y11450000D02*
X22935000Y10180000D01*
X24205000Y50580000D02*
X22935000Y49310000D01*
X22935000Y49310000D02*
X22935000Y43510000D01*
X22935000Y35890000D02*
X22935000Y12720000D01*
X26745000Y48040000D02*
X26745000Y43510000D01*
X26745000Y35890000D02*
X26745000Y11450000D01*
X26745000Y11450000D02*
X25475000Y10180000D01*
X26745000Y50580000D02*
X25475000Y49310000D01*
X25475000Y49310000D02*
X25475000Y30380000D01*
X25475000Y30380000D02*
X25475000Y12720000D01*
X29285000Y48040000D02*
X29285000Y24870000D01*
X29285000Y17250000D02*
X29285000Y11450000D01*
X29285000Y11450000D02*
X28015000Y10180000D01*
X29285000Y50580000D02*
X28015000Y49310000D01*
X28015000Y49310000D02*
X28015000Y34190000D01*
X28015000Y26570000D02*
X28015000Y12720000D01*
X31825000Y50580000D02*
X30555000Y49310000D01*
X30555000Y49310000D02*
X30555000Y43510000D01*
X30555000Y35890000D02*
X30555000Y12720000D01*
X34365000Y48040000D02*
X34365000Y43510000D01*
X34365000Y35890000D02*
X34365000Y11450000D01*
X34365000Y11450000D02*
X33095000Y10180000D01*
X34365000Y50580000D02*
X33095000Y49310000D01*
X33095000Y49310000D02*
X33095000Y30380000D01*
X33095000Y30380000D02*
X33095000Y12720000D01*
X36905000Y48040000D02*
X36905000Y24870000D01*
X36905000Y17250000D02*
X36905000Y11450000D01*
X36905000Y11450000D02*
X35635000Y10180000D01*
X36905000Y50580000D02*
X35635000Y49310000D01*
X35635000Y49310000D02*
X35635000Y34190000D01*
X35635000Y26570000D02*
X35635000Y12720000D01*
X39445000Y48040000D02*
X39445000Y34190000D01*
X39445000Y26570000D02*
X39445000Y11450000D01*
X39445000Y11450000D02*
X38175000Y10180000D01*
X39445000Y50580000D02*
X38175000Y49310000D01*
X38175000Y49310000D02*
X38175000Y43510000D01*
X38175000Y35890000D02*
X38175000Y12720000D01*
X41985000Y48040000D02*
X41985000Y30380000D01*
X41985000Y30380000D02*
X41985000Y11450000D01*
X41985000Y11450000D02*
X40715000Y10180000D01*
X41985000Y50580000D02*
X40715000Y49310000D01*
X40715000Y49310000D02*
X40715000Y24870000D01*
X40715000Y17250000D02*
X40715000Y12720000D01*
X47065000Y48040000D02*
X47065000Y34190000D01*
X47065000Y26570000D02*
X47065000Y11450000D01*
X47065000Y11450000D02*
X45795000Y10180000D01*
X47065000Y50580000D02*
X45795000Y49310000D01*
X45795000Y49310000D02*
X45795000Y30380000D01*
X45795000Y30380000D02*
X45795000Y12720000D01*
X49605000Y48040000D02*
X49605000Y43510000D01*
X49605000Y35890000D02*
X49605000Y11450000D01*
X49605000Y11450000D02*
X48335000Y10180000D01*
X49605000Y50580000D02*
X48335000Y49310000D01*
X48335000Y49310000D02*
X48335000Y24870000D01*
X48335000Y17250000D02*
X48335000Y12720000D01*
X52145000Y48040000D02*
X52145000Y24870000D01*
X52145000Y17250000D02*
X52145000Y11450000D01*
X52145000Y11450000D02*
X50875000Y10180000D01*
X52145000Y50580000D02*
X50875000Y49310000D01*
X50875000Y49310000D02*
X50875000Y30380000D01*
X50875000Y30380000D02*
X50875000Y12720000D01*
X54685000Y48040000D02*
X54685000Y34190000D01*
X54685000Y26570000D02*
X54685000Y11450000D01*
X54685000Y11450000D02*
X53415000Y10180000D01*
X54685000Y50580000D02*
X53415000Y49310000D01*
X53415000Y49310000D02*
X53415000Y43510000D01*
X53415000Y35890000D02*
X53415000Y12720000D01*
X57225000Y48040000D02*
X57225000Y43510000D01*
X57225000Y35890000D02*
X57225000Y11450000D01*
X57225000Y11450000D02*
X55955000Y10180000D01*
X57225000Y50580000D02*
X55955000Y49310000D01*
X55955000Y49310000D02*
X55955000Y24870000D01*
X55955000Y17250000D02*
X55955000Y12720000D01*
X59765000Y48040000D02*
X59765000Y30380000D01*
X59765000Y30380000D02*
X59765000Y11450000D01*
X59765000Y11450000D02*
X58495000Y10180000D01*
X59765000Y50580000D02*
X58495000Y49310000D01*
X58495000Y49310000D02*
X58495000Y34190000D01*
X58495000Y26570000D02*
X58495000Y12720000D01*
D11*
X11505000Y48040000D03*
D12*
X11505000Y50580000D03*
X14045000Y48040000D03*
X14045000Y50580000D03*
X16585000Y48040000D03*
X16585000Y50580000D03*
X19125000Y48040000D03*
X19125000Y50580000D03*
X21665000Y48040000D03*
X21665000Y50580000D03*
X24205000Y48040000D03*
X24205000Y50580000D03*
X26745000Y48040000D03*
X26745000Y50580000D03*
X29285000Y48040000D03*
X29285000Y50580000D03*
X31825000Y48040000D03*
X31825000Y50580000D03*
X34365000Y48040000D03*
X34365000Y50580000D03*
X36905000Y48040000D03*
X36905000Y50580000D03*
X39445000Y48040000D03*
X39445000Y50580000D03*
X41985000Y48040000D03*
X41985000Y50580000D03*
X44525000Y48040000D03*
X44525000Y50580000D03*
X47065000Y48040000D03*
X47065000Y50580000D03*
X49605000Y48040000D03*
X49605000Y50580000D03*
X52145000Y48040000D03*
X52145000Y50580000D03*
X54685000Y48040000D03*
X54685000Y50580000D03*
X57225000Y48040000D03*
X57225000Y50580000D03*
X59765000Y48040000D03*
X59765000Y50580000D03*
D11*
X10235000Y10180000D03*
D12*
X10235000Y12720000D03*
X12775000Y10180000D03*
X12775000Y12720000D03*
X15315000Y10180000D03*
X15315000Y12720000D03*
X17855000Y10180000D03*
X17855000Y12720000D03*
X20395000Y10180000D03*
X20395000Y12720000D03*
X22935000Y10180000D03*
X22935000Y12720000D03*
X25475000Y10180000D03*
X25475000Y12720000D03*
X28015000Y10180000D03*
X28015000Y12720000D03*
X30555000Y10180000D03*
X30555000Y12720000D03*
X33095000Y10180000D03*
X33095000Y12720000D03*
X35635000Y10180000D03*
X35635000Y12720000D03*
X38175000Y10180000D03*
X38175000Y12720000D03*
X40715000Y10180000D03*
X40715000Y12720000D03*
X43255000Y10180000D03*
X43255000Y12720000D03*
X45795000Y10180000D03*
X45795000Y12720000D03*
X48335000Y10180000D03*
X48335000Y12720000D03*
X50875000Y10180000D03*
X50875000Y12720000D03*
X53415000Y10180000D03*
X53415000Y12720000D03*
X55955000Y10180000D03*
X55955000Y12720000D03*
X58495000Y10180000D03*
X58495000Y12720000D03*
X14045000Y24870000D03*
X14045000Y17250000D03*
X16585000Y34190000D03*
X16585000Y26570000D03*
X19125000Y43510000D03*
X19125000Y35890000D03*
X17855000Y24870000D03*
X17855000Y17250000D03*
X20395000Y34190000D03*
X20395000Y26570000D03*
X24205000Y34190000D03*
X24205000Y26570000D03*
X22935000Y43510000D03*
X22935000Y35890000D03*
X26745000Y43510000D03*
X26745000Y35890000D03*
X29285000Y24870000D03*
X29285000Y17250000D03*
X28015000Y34190000D03*
X28015000Y26570000D03*
X30555000Y43510000D03*
X30555000Y35890000D03*
X34365000Y43510000D03*
X34365000Y35890000D03*
X36905000Y24870000D03*
X36905000Y17250000D03*
X35635000Y34190000D03*
X35635000Y26570000D03*
X39445000Y34190000D03*
X39445000Y26570000D03*
X38175000Y43510000D03*
X38175000Y35890000D03*
X40715000Y24870000D03*
X40715000Y17250000D03*
X47065000Y34190000D03*
X47065000Y26570000D03*
X49605000Y43510000D03*
X49605000Y35890000D03*
X48335000Y24870000D03*
X48335000Y17250000D03*
X52145000Y24870000D03*
X52145000Y17250000D03*
X54685000Y34190000D03*
X54685000Y26570000D03*
X53415000Y43510000D03*
X53415000Y35890000D03*
X57225000Y43510000D03*
X57225000Y35890000D03*
X55955000Y24870000D03*
X55955000Y17250000D03*
X58495000Y34190000D03*
X58495000Y26570000D03*
M02*
