G04 Gegenereerd door hardware/gpio-adapter/maak_pcb.py*
%TF.GenerationSoftware,rpitest,maak_pcb,1*%
%TF.FileFunction,Legend,Top*%
%TF.FilePolarity,Positive*%
%FSLAX46Y46*%
%MOMM*%
%ADD10C,0.200000*%
G01*
D10*
X12795000Y23820000D02*
X12795000Y18300000D01*
X15295000Y23820000D02*
X15295000Y18300000D01*
X15335000Y33140000D02*
X15335000Y27620000D01*
X17835000Y33140000D02*
X17835000Y27620000D01*
X17875000Y42460000D02*
X17875000Y36940000D01*
X20375000Y42460000D02*
X20375000Y36940000D01*
X16605000Y23820000D02*
X16605000Y18300000D01*
X19105000Y23820000D02*
X19105000Y18300000D01*
X19145000Y33140000D02*
X19145000Y27620000D01*
X21645000Y33140000D02*
X21645000Y27620000D01*
X22955000Y33140000D02*
X22955000Y27620000D01*
X25455000Y33140000D02*
X25455000Y27620000D01*
X21685000Y42460000D02*
X21685000Y36940000D01*
X24185000Y42460000D02*
X24185000Y36940000D01*
X25495000Y42460000D02*
X25495000Y36940000D01*
X27995000Y42460000D02*
X27995000Y36940000D01*
X28035000Y23820000D02*
X28035000Y18300000D01*
X30535000Y23820000D02*
X30535000Y18300000D01*
X26765000Y33140000D02*
X26765000Y27620000D01*
X29265000Y33140000D02*
X29265000Y27620000D01*
X29305000Y42460000D02*
X29305000Y36940000D01*
X31805000Y42460000D02*
X31805000Y36940000D01*
X33115000Y42460000D02*
X33115000Y36940000D01*
X35615000Y42460000D02*
X35615000Y36940000D01*
X35655000Y23820000D02*
X35655000Y18300000D01*
X38155000Y23820000D02*
X38155000Y18300000D01*
X34385000Y33140000D02*
X34385000Y27620000D01*
X36885000Y33140000D02*
X36885000Y27620000D01*
X38195000Y33140000D02*
X38195000Y27620000D01*
X40695000Y33140000D02*
X40695000Y27620000D01*
X36925000Y42460000D02*
X36925000Y36940000D01*
X39425000Y42460000D02*
X39425000Y36940000D01*
X39465000Y23820000D02*
X39465000Y18300000D01*
X41965000Y23820000D02*
X41965000Y18300000D01*
X45815000Y33140000D02*
X45815000Y27620000D01*
X48315000Y33140000D02*
X48315000Y27620000D01*
X48355000Y42460000D02*
X48355000Y36940000D01*
X50855000Y42460000D02*
X50855000Y36940000D01*
X47085000Y23820000D02*
X47085000Y18300000D01*
X49585000Y23820000D02*
X49585000Y18300000D01*
X50895000Y23820000D02*
X50895000Y18300000D01*
X53395000Y23820000D02*
X53395000Y18300000D01*
X53435000Y33140000D02*
X53435000Y27620000D01*
X55935000Y33140000D02*
X55935000Y27620000D01*
X52165000Y42460000D02*
X52165000Y36940000D01*
X54665000Y42460000D02*
X54665000Y36940000D01*
X55975000Y42460000D02*
X55975000Y36940000D01*
X58475000Y42460000D02*
X58475000Y36940000D01*
X54705000Y23820000D02*
X54705000Y18300000D01*
X57205000Y23820000D02*
X57205000Y18300000D01*
X57245000Y33140000D02*
X57245000Y27620000D01*
X59745000Y33140000D02*
X59745000Y27620000D01*
X8965000Y53760000D02*
X62305000Y53760000D01*
X62305000Y53760000D02*
X62305000Y44860000D01*
X62305000Y44860000D02*
X8965000Y44860000D01*
X8965000Y44860000D02*
X8965000Y53760000D01*
X7695000Y15900000D02*
X61035000Y15900000D01*
X61035000Y15900000D02*
X61035000Y7000000D01*
X61035000Y7000000D02*
X7695000Y7000000D01*
X7695000Y7000000D02*
X7695000Y15900000D01*
X7265000Y48640000D02*
X7565000Y48940000D01*
X7565000Y48940000D02*
X7565000Y47140000D01*
X7265000Y47140000D02*
X7865000Y47140000D01*
X5995000Y10780000D02*
X6295000Y11080000D01*
X6295000Y11080000D02*
X6295000Y9280000D01*
X5995000Y9280000D02*
X6595000Y9280000D01*
X8000000Y56760000D02*
X8000000Y57960000D01*
X8000000Y57960000D02*
X8600000Y58560000D01*
X8600000Y58560000D02*
X9200000Y57960000D01*
X9200000Y57960000D02*
X9200000Y56760000D01*
X8000000Y57660000D02*
X9200000Y57660000D01*
X11360000Y58560000D02*
X12560000Y58560000D01*
X11960000Y58560000D02*
X11960000Y56760000D01*
X14240000Y58560000D02*
X13040000Y58560000D01*
X13040000Y58560000D02*
X13040000Y56760000D01*
X13040000Y56760000D02*
X14240000Y56760000D01*
X13040000Y57660000D02*
X13940000Y57660000D01*
X15920000Y58260000D02*
X15620000Y58560000D01*
X15620000Y58560000D02*
X15020000Y58560000D01*
X15020000Y58560000D02*
X14720000Y58260000D01*
X14720000Y58260000D02*
X14720000Y57960000D01*
X14720000Y57960000D02*
X15020000Y57660000D01*
X15020000Y57660000D02*
X15620000Y57660000D01*
X15620000Y57660000D02*
X15920000Y57360000D01*
X15920000Y57360000D02*
X15920000Y57060000D01*
X15920000Y57060000D02*
X15620000Y56760000D01*
X15620000Y56760000D02*
X15020000Y56760000D01*
X15020000Y56760000D02*
X14720000Y57060000D01*
X16400000Y58560000D02*
X17600000Y58560000D01*
X17000000Y58560000D02*
X17000000Y56760000D01*
X18230000Y57660000D02*
X19130000Y57660000D01*
X20960000Y58260000D02*
X20660000Y58560000D01*
X20660000Y58560000D02*
X20060000Y58560000D01*
X20060000Y58560000D02*
X19760000Y58260000D01*
X19760000Y58260000D02*
X19760000Y57960000D01*
X19760000Y57960000D02*
X20060000Y57660000D01*
X20060000Y57660000D02*
X20660000Y57660000D01*
X20660000Y57660000D02*
X20960000Y57360000D01*
X20960000Y57360000D02*
X20960000Y57060000D01*
X20960000Y57060000D02*
X20660000Y56760000D01*
X20660000Y56760000D02*
X20060000Y56760000D01*
X20060000Y56760000D02*
X19760000Y57060000D01*
X22640000Y58560000D02*
X21440000Y58560000D01*
X21440000Y58560000D02*
X21440000Y56760000D01*
X21440000Y56760000D02*
X22640000Y56760000D01*
X21440000Y57660000D02*
X22340000Y57660000D01*
X23120000Y56760000D02*
X23120000Y58560000D01*
X23120000Y58560000D02*
X24020000Y58560000D01*
X24020000Y58560000D02*
X24320000Y58260000D01*
X24320000Y58260000D02*
X24320000Y57960000D01*
X24320000Y57960000D02*
X24020000Y57660000D01*
X24020000Y57660000D02*
X23120000Y57660000D01*
X23720000Y57660000D02*
X24320000Y56760000D01*
X24800000Y58560000D02*
X25400000Y56760000D01*
X25400000Y56760000D02*
X26000000Y58560000D01*
X27680000Y58560000D02*
X26480000Y58560000D01*
X26480000Y58560000D02*
X26480000Y56760000D01*
X26480000Y56760000D02*
X27680000Y56760000D01*
X26480000Y57660000D02*
X27380000Y57660000D01*
X28160000Y56760000D02*
X28160000Y58560000D01*
X28160000Y58560000D02*
X29060000Y58560000D01*
X29060000Y58560000D02*
X29360000Y58260000D01*
X29360000Y58260000D02*
X29360000Y57960000D01*
X29360000Y57960000D02*
X29060000Y57660000D01*
X29060000Y57660000D02*
X28160000Y57660000D01*
X28760000Y57660000D02*
X29360000Y56760000D01*
X43520000Y58260000D02*
X43220000Y58560000D01*
X43220000Y58560000D02*
X42620000Y58560000D01*
X42620000Y58560000D02*
X42320000Y58260000D01*
X42320000Y58260000D02*
X42320000Y57060000D01*
X42320000Y57060000D02*
X42620000Y56760000D01*
X42620000Y56760000D02*
X43220000Y56760000D01*
X43220000Y56760000D02*
X43520000Y57060000D01*
X43520000Y57060000D02*
X43520000Y57660000D01*
X43520000Y57660000D02*
X42920000Y57660000D01*
X44000000Y56760000D02*
X44000000Y58560000D01*
X44000000Y58560000D02*
X44900000Y58560000D01*
X44900000Y58560000D02*
X45200000Y58260000D01*
X45200000Y58260000D02*
X45200000Y57960000D01*
X45200000Y57960000D02*
X44900000Y57660000D01*
X44900000Y57660000D02*
X44000000Y57660000D01*
X45980000Y58560000D02*
X46580000Y58560000D01*
X46280000Y58560000D02*
X46280000Y56760000D01*
X45980000Y56760000D02*
X46580000Y56760000D01*
X47660000Y56760000D02*
X47360000Y57060000D01*
X47360000Y57060000D02*
X47360000Y58260000D01*
X47360000Y58260000D02*
X47660000Y58560000D01*
X47660000Y58560000D02*
X48260000Y58560000D01*
X48260000Y58560000D02*
X48560000Y58260000D01*
X48560000Y58260000D02*
X48560000Y57060000D01*
X48560000Y57060000D02*
X48260000Y56760000D01*
X48260000Y56760000D02*
X47660000Y56760000D01*
X49190000Y57660000D02*
X50090000Y57660000D01*
X50720000Y56760000D02*
X50720000Y57960000D01*
X50720000Y57960000D02*
X51320000Y58560000D01*
X51320000Y58560000D02*
X51920000Y57960000D01*
X51920000Y57960000D02*
X51920000Y56760000D01*
X50720000Y57660000D02*
X51920000Y57660000D01*
X52400000Y56760000D02*
X52400000Y58560000D01*
X52400000Y58560000D02*
X53000000Y58560000D01*
X53000000Y58560000D02*
X53600000Y57960000D01*
X53600000Y57960000D02*
X53600000Y57360000D01*
X53600000Y57360000D02*
X53000000Y56760000D01*
X53000000Y56760000D02*
X52400000Y56760000D01*
X54080000Y56760000D02*
X54080000Y57960000D01*
X54080000Y57960000D02*
X54680000Y58560000D01*
X54680000Y58560000D02*
X55280000Y57960000D01*
X55280000Y57960000D02*
X55280000Y56760000D01*
X54080000Y57660000D02*
X55280000Y57660000D01*
X55760000Y56760000D02*
X55760000Y58560000D01*
X55760000Y58560000D02*
X56660000Y58560000D01*
X56660000Y58560000D02*
X56960000Y58260000D01*
X56960000Y58260000D02*
X56960000Y57960000D01*
X56960000Y57960000D02*
X56660000Y57660000D01*
X56660000Y57660000D02*
X55760000Y57660000D01*
X57440000Y58560000D02*
X58640000Y58560000D01*
X58040000Y58560000D02*
X58040000Y56760000D01*
X60320000Y58560000D02*
X59120000Y58560000D01*
X59120000Y58560000D02*
X59120000Y56760000D01*
X59120000Y56760000D02*
X60320000Y56760000D01*
X59120000Y57660000D02*
X60020000Y57660000D01*
X60800000Y56760000D02*
X60800000Y58560000D01*
X60800000Y58560000D02*
X61700000Y58560000D01*
X61700000Y58560000D02*
X62000000Y58260000D01*
X62000000Y58260000D02*
X62000000Y57960000D01*
X62000000Y57960000D02*
X61700000Y57660000D01*
X61700000Y57660000D02*
X60800000Y57660000D01*
X61400000Y57660000D02*
X62000000Y56760000D01*
X8000000Y2200000D02*
X8000000Y4000000D01*
X8000000Y4000000D02*
X8900000Y4000000D01*
X8900000Y4000000D02*
X9200000Y3700000D01*
X9200000Y3700000D02*
X9200000Y3400000D01*
X9200000Y3400000D02*
X8900000Y3100000D01*
X8900000Y3100000D02*
X8000000Y3100000D01*
X8900000Y3100000D02*
X9200000Y2800000D01*
X9200000Y2800000D02*
X9200000Y2500000D01*
X9200000Y2500000D02*
X8900000Y2200000D01*
X8900000Y2200000D02*
X8000000Y2200000D01*
X11360000Y4000000D02*
X12560000Y4000000D01*
X11960000Y4000000D02*
X11960000Y2200000D01*
X14240000Y4000000D02*
X13040000Y4000000D01*
X13040000Y4000000D02*
X13040000Y2200000D01*
X13040000Y2200000D02*
X14240000Y2200000D01*
X13040000Y3100000D02*
X13940000Y3100000D01*
X15920000Y3700000D02*
X15620000Y4000000D01*
X15620000Y4000000D02*
X15020000Y4000000D01*
X15020000Y4000000D02*
X14720000Y3700000D01*
X14720000Y3700000D02*
X14720000Y3400000D01*
X14720000Y3400000D02*
X15020000Y3100000D01*
X15020000Y3100000D02*
X15620000Y3100000D01*
X15620000Y3100000D02*
X15920000Y2800000D01*
X15920000Y2800000D02*
X15920000Y2500000D01*
X15920000Y2500000D02*
X15620000Y2200000D01*
X15620000Y2200000D02*
X15020000Y2200000D01*
X15020000Y2200000D02*
X14720000Y2500000D01*
X16400000Y4000000D02*
X17600000Y4000000D01*
X17000000Y4000000D02*
X17000000Y2200000D01*
X18230000Y3100000D02*
X19130000Y3100000D01*
X20960000Y3700000D02*
X20660000Y4000000D01*
X20660000Y4000000D02*
X20060000Y4000000D01*
X20060000Y4000000D02*
X19760000Y3700000D01*
X19760000Y3700000D02*
X19760000Y2500000D01*
X19760000Y2500000D02*
X20060000Y2200000D01*
X20060000Y2200000D02*
X20660000Y2200000D01*
X20660000Y2200000D02*
X20960000Y2500000D01*
X21440000Y4000000D02*
X21440000Y2200000D01*
X21440000Y2200000D02*
X22640000Y2200000D01*
X23420000Y4000000D02*
X24020000Y4000000D01*
X23720000Y4000000D02*
X23720000Y2200000D01*
X23420000Y2200000D02*
X24020000Y2200000D01*
X26000000Y4000000D02*
X24800000Y4000000D01*
X24800000Y4000000D02*
X24800000Y2200000D01*
X24800000Y2200000D02*
X26000000Y2200000D01*
X24800000Y3100000D02*
X25700000Y3100000D01*
X26480000Y2200000D02*
X26480000Y4000000D01*
X26480000Y4000000D02*
X27680000Y2200000D01*
X27680000Y2200000D02*
X27680000Y4000000D01*
X28160000Y4000000D02*
X29360000Y4000000D01*
X28760000Y4000000D02*
X28760000Y2200000D01*
X55760000Y3700000D02*
X56060000Y4000000D01*
X56060000Y4000000D02*
X56660000Y4000000D01*
X56660000Y4000000D02*
X56960000Y3700000D01*
X56960000Y3700000D02*
X56960000Y3400000D01*
X56960000Y3400000D02*
X55760000Y2200000D01*
X55760000Y2200000D02*
X56960000Y2200000D01*
X57440000Y3700000D02*
X57740000Y4000000D01*
X57740000Y4000000D02*
X58340000Y4000000D01*
X58340000Y4000000D02*
X58640000Y3700000D01*
X58640000Y3700000D02*
X58640000Y3400000D01*
X58640000Y3400000D02*
X57440000Y2200000D01*
X57440000Y2200000D02*
X58640000Y2200000D01*
X59420000Y2200000D02*
X59120000Y2500000D01*
X59120000Y2500000D02*
X59120000Y3700000D01*
X59120000Y3700000D02*
X59420000Y4000000D01*
X59420000Y4000000D02*
X60020000Y4000000D01*
X60020000Y4000000D02*
X60320000Y3700000D01*
X60320000Y3700000D02*
X60320000Y2500000D01*
X60320000Y2500000D02*
X60020000Y2200000D01*
X60020000Y2200000D02*
X59420000Y2200000D01*
X59300000Y2380000D02*
X60140000Y3820000D01*
X60800000Y2200000D02*
X60800000Y4000000D01*
X60800000Y4000000D02*
X61700000Y4000000D01*
X61700000Y4000000D02*
X62000000Y3700000D01*
X62000000Y3700000D02*
X62000000Y3400000D01*
X62000000Y3400000D02*
X61700000Y3100000D01*
X61700000Y3100000D02*
X60800000Y3100000D01*
X61400000Y3100000D02*
X62000000Y2200000D01*
M02*
